<svg width="0" height="0" style="position:absolute"><symbol viewBox="0 0 256 320" id="arrow" xmlns="http://www.w3.org/2000/svg"><path d="M147.291 102.352c3.512.002 6.369 2.857 6.369 6.369a6.377 6.377 0 0 1-6.381 6.381c-3.512 0-6.365-2.857-6.369-6.367a6.382 6.382 0 0 1 6.381-6.383zM147.279 121.631a6.36 6.36 0 0 1 6.375 6.375c.002 3.512-2.855 6.367-6.371 6.371a6.389 6.389 0 0 1-6.375-6.375c0-3.52 2.856-6.377 6.371-6.371zM147.287 140.896a6.381 6.381 0 0 1 6.375 6.375c-.008 3.516-2.863 6.373-6.375 6.373a6.38 6.38 0 0 1-6.375-6.375c-.004-3.515 2.852-6.371 6.375-6.373zM128.018 121.627a6.367 6.367 0 0 1 6.367 6.369c.002 3.525-2.852 6.381-6.373 6.371-3.516.006-6.369-2.852-6.367-6.367a6.359 6.359 0 0 1 6.373-6.373zM128.012 140.898a6.376 6.376 0 0 1 6.375 6.375 6.385 6.385 0 0 1-6.375 6.375 6.375 6.375 0 0 1 0-12.75zM108.74 140.902a6.365 6.365 0 0 1 6.369 6.369 6.351 6.351 0 0 1-6.369 6.367 6.363 6.363 0 0 1-6.367-6.367 6.352 6.352 0 0 1 6.367-6.369z"/><text y="271" font-size="5" font-weight="bold" font-family="'Helvetica Neue', Helvetica, Arial-Unicode, Arial, Sans-serif">Created by Joaquín Sáenz</text><text y="276" font-size="5" font-weight="bold" font-family="'Helvetica Neue', Helvetica, Arial-Unicode, Arial, Sans-serif">from the Noun Project</text></symbol><symbol viewBox="0 0 100 125" id="colon" xmlns="http://www.w3.org/2000/svg"><circle cx="49" cy="59.4" r="6.7"/><circle cx="49" cy="36.2" r="6.7"/><text y="115" font-size="5" font-weight="bold" font-family="'Helvetica Neue', Helvetica, Arial-Unicode, Arial, Sans-serif">Created by Sumana Chamrunworakiat</text><text y="120" font-size="5" font-weight="bold" font-family="'Helvetica Neue', Helvetica, Arial-Unicode, Arial, Sans-serif">from the Noun Project</text></symbol></svg>